<svg width="242" height="64" viewBox="0 0 242 64" fill="none" xmlns="http://www.w3.org/2000/svg">
<path d="M29.4076 17.355L40.8203 52.0547C41.4389 53.9329 45.0288 54.0297 45.8351 52.1923L57.154 26.3969L59.1905 31.7359C59.3436 32.1375 59.6718 32.4914 60.1248 32.7435C60.5778 32.9957 61.1309 33.1323 61.6996 33.1324H73.8421C74.5334 33.1324 75.1964 32.931 75.6852 32.5726C76.174 32.2142 76.4486 31.728 76.4486 31.2211C76.4486 30.7142 76.174 30.228 75.6852 29.8696C75.1964 29.5111 74.5334 29.3097 73.8421 29.3097H63.677L59.8369 19.2434C59.1418 17.4161 55.6388 17.3677 54.8464 19.172L43.7152 44.5469L32.0557 9.10816C31.4232 7.17899 27.6943 7.14841 27.0027 9.06739L19.7047 29.3097H9.55694C8.86567 29.3097 8.20271 29.5111 7.71391 29.8696C7.22511 30.228 6.9505 30.7142 6.9505 31.2211C6.9505 31.728 7.22511 32.2142 7.71391 32.5726C8.20271 32.931 8.86567 33.1324 9.55694 33.1324H21.7064C22.2815 33.1324 22.8404 32.9929 23.2961 32.7357C23.7518 32.4785 24.0788 32.118 24.226 31.7104L29.4076 17.355Z" fill="#DED0A2"/>
<path d="M136.167 18.2959L147.58 52.9956C148.199 54.8738 151.788 54.9707 152.595 53.1332L163.914 27.3378L165.95 32.6768C166.103 33.0785 166.431 33.4323 166.884 33.6845C167.337 33.9366 167.891 34.0732 168.459 34.0734H180.602C181.293 34.0734 181.956 33.872 182.445 33.5135C182.934 33.1551 183.208 32.6689 183.208 32.162C183.208 31.6551 182.934 31.169 182.445 30.8105C181.956 30.4521 181.293 30.2507 180.602 30.2507H170.437L166.597 20.1843C165.901 18.3571 162.398 18.3086 161.606 20.1129L150.475 45.4879L138.815 10.0491C138.183 8.11993 134.454 8.08935 133.762 10.0083L126.464 30.2507H116.317C115.625 30.2507 114.962 30.4521 114.474 30.8105C113.985 31.169 113.71 31.6551 113.71 32.162C113.71 32.6689 113.985 33.1551 114.474 33.5135C114.962 33.872 115.625 34.0734 116.317 34.0734H128.466C129.041 34.0734 129.6 33.9339 130.056 33.6767C130.511 33.4195 130.838 33.059 130.986 32.6513L136.167 18.2959Z" fill="#DED0A2"/>
<path d="M106.28 44.1244L94.6794 9.54907C94.0506 7.6776 90.4602 7.61956 89.664 9.46565L78.4856 35.3827L76.4201 30.0658C76.2648 29.6658 75.9348 29.3155 75.4804 29.0683C75.026 28.821 74.4722 28.6904 73.9035 28.6964L61.7613 28.8277C61.0701 28.8351 60.4082 29.0437 59.9214 29.4074C59.4346 29.7711 59.1626 30.2602 59.1654 30.7671C59.1681 31.274 59.4454 31.7572 59.9361 32.1103C60.4268 32.4635 61.0909 32.6577 61.7821 32.6502L71.9469 32.5404L75.8417 42.5649C76.5466 44.3846 80.0498 44.3952 80.8324 42.5824L91.8254 17.0879L103.677 52.3996C104.32 54.3219 108.049 54.3122 108.73 52.3858L115.918 32.0651L126.065 31.9554C126.757 31.948 127.418 31.7394 127.905 31.3757C128.392 31.012 128.664 30.5229 128.661 30.016C128.659 29.5091 128.381 29.0259 127.891 28.6728C127.4 28.3196 126.736 28.1254 126.045 28.1329L113.895 28.2642C113.32 28.2704 112.762 28.4159 112.308 28.678C111.854 28.9402 111.529 29.3042 111.384 29.7134L106.28 44.1244Z" fill="#DED0A2"/>
</svg>
