<svg width="24" height="24" viewBox="0 0 24 24" fill="none" xmlns="http://www.w3.org/2000/svg">
<path d="M19.23 15.26L16.69 14.97C16.3913 14.9349 16.0886 14.968 15.8046 15.0667C15.5205 15.1654 15.2625 15.3272 15.05 15.54L13.21 17.38C10.3714 15.9359 8.06406 13.6286 6.61999 10.79L8.47 8.94C8.89999 8.51 9.10999 7.91 9.03999 7.3L8.74999 4.78C8.69351 4.29209 8.45946 3.84202 8.09246 3.51559C7.72545 3.18916 7.25116 3.00919 6.76 3.01H5.03C3.9 3.01 2.95999 3.95 3.02999 5.08C3.55999 13.62 10.39 20.44 18.92 20.97C20.05 21.04 20.99 20.1 20.99 18.97V17.24C21 16.23 20.24 15.38 19.23 15.26Z" fill="#A4A4A4"/>
</svg>
